<svg xmlns="http://www.w3.org/2000/svg" viewBox="0 0 1200 900">
  <defs>
    <linearGradient id="bg" x1="0" y1="0" x2="1" y2="1">
      <stop offset="0%" stop-color="#efe5d2"/>
      <stop offset="100%" stop-color="#dceac7"/>
    </linearGradient>
  </defs>
  <rect width="1200" height="900" fill="url(#bg)"/>
  <path d="M0 626c109-84 255-137 411-116 137 19 196 95 318 108 168 18 292-80 471-152v434H0Z" fill="#819f67"/>
  <path d="M0 699c122-77 252-105 395-82 125 20 205 90 337 89 143-2 251-83 468-119v313H0Z" fill="#466743"/>
  <g transform="translate(190 210)">
    <ellipse cx="0" cy="0" rx="120" ry="56" fill="#69422e"/>
    <ellipse cx="112" cy="58" rx="120" ry="56" fill="#7c5036"/>
    <ellipse cx="230" cy="10" rx="120" ry="56" fill="#5d3b28"/>
    <ellipse cx="346" cy="72" rx="120" ry="56" fill="#8a5a3f"/>
    <ellipse cx="466" cy="20" rx="120" ry="56" fill="#6b432d"/>
    <ellipse cx="578" cy="82" rx="120" ry="56" fill="#85563c"/>
  </g>
  <text x="92" y="122" fill="#244833" font-size="44" font-family="'Noto Sans JP', sans-serif" font-weight="700">豊かな畑に実る豆</text>
  <text x="92" y="178" fill="#5a6f55" font-size="24" font-family="'Noto Sans JP', sans-serif">外部依存をなくすためのローカル代替ビジュアル</text>
</svg>