<svg xmlns="http://www.w3.org/2000/svg" viewBox="0 0 200 200">
  <defs>
    <path id="topArc" d="M 12,100 A 88,88 0 0,1 188,100"/>
    <path id="bottomArc" d="M 18,100 A 82,82 0 0,0 182,100"/>
  </defs>
  <!-- Outer green circle -->
  <circle cx="100" cy="100" r="99" fill="#1a6b3c"/>
  <!-- White band -->
  <circle cx="100" cy="100" r="89" fill="white"/>
  <!-- Inner green circle -->
  <circle cx="100" cy="100" r="79" fill="#1a6b3c"/>
  <!-- Dot separators -->
  <circle cx="100" cy="12" r="3.5" fill="#1a6b3c"/>
  <circle cx="100" cy="188" r="3.5" fill="#3dbfa0"/>
  <!-- Top arc text -->
  <text font-family="'Helvetica Neue',Arial,sans-serif" font-size="13" font-weight="800" fill="#1a6b3c" letter-spacing="2.5">
    <textPath href="#topArc" startOffset="6%">SORA&amp;MIZU&amp;DAICHI</textPath>
  </text>
  <!-- Bottom arc text -->
  <text font-family="'Hiragino Sans','Noto Sans JP',sans-serif" font-size="11.5" font-weight="700" fill="#3dbfa0" letter-spacing="1.5">
    <textPath href="#bottomArc" startOffset="13%">空と水と大地合同会社</textPath>
  </text>
  <!-- Plant stem -->
  <line x1="100" y1="62" x2="100" y2="118" stroke="white" stroke-width="3.5" stroke-linecap="round"/>
  <!-- Top leaves -->
  <path d="M100 66 C103 57,113 52,116 61 C119 70,108 74,100 66Z" fill="white"/>
  <path d="M100 66 C97 57,87 52,84 61 C81 70,92 74,100 66Z" fill="white"/>
  <!-- Side leaves -->
  <path d="M100 82 C106 74,118 73,118 83 C118 91,107 92,100 87Z" fill="white"/>
  <path d="M100 94 C94 86,82 85,82 95 C82 103,93 104,100 99Z" fill="white"/>
  <!-- Cupped hands -->
  <path d="M64 116 C64 112,68 110,72 110 L79 110 C81 108,83 107,85 108 L93 113 L107 113 L115 108 C117 107,119 108,121 110 L128 110 C132 110,136 112,136 116 C136 124,130 132,122 135 L100 140 L78 135 C70 132,64 124,64 116Z" fill="white"/>
</svg>