<svg xmlns="http://www.w3.org/2000/svg" viewBox="0 0 1200 900">
  <rect width="1200" height="900" fill="#f4efe4"/>
  <rect y="632" width="1200" height="268" fill="#6f5d45"/>
  <rect y="672" width="1200" height="228" fill="#5a4836"/>
  <path d="M601 686c-6-158 11-300 56-414 23 104 20 208-8 314 76-62 171-101 283-114-84 106-178 172-292 198-6 6-13 11-20 16Z" fill="#6f9d52"/>
  <path d="M566 686c6-146-6-264-39-352-64 60-103 133-114 220-57-64-133-108-229-128 64 120 155 203 282 249 32 14 65 18 100 11Z" fill="#88b768"/>
  <rect x="579" y="338" width="36" height="360" rx="18" fill="#557246"/>
  <text x="92" y="122" fill="#204d36" font-size="52" font-family="'Noto Serif JP', serif" font-weight="700">元気な双葉</text>
  <text x="92" y="184" fill="#617060" font-size="24" font-family="'Noto Sans JP', sans-serif">成長のはじまりを表現したローカルイラスト</text>
</svg>