<svg xmlns="http://www.w3.org/2000/svg" viewBox="0 0 1200 900">
  <rect width="1200" height="900" fill="#f6efe1"/>
  <circle cx="946" cy="198" r="114" fill="#d98a52" opacity="0.26"/>
  <rect x="56" y="56" width="1088" height="788" rx="36" fill="#fffaf1" stroke="#dbcdb8"/>
  <g transform="translate(204 244)">
    <path d="M88 330c55-133 122-235 205-306 19 151 120 278 265 343-182 60-333 50-470-37Z" fill="#557246"/>
    <path d="M474 93c130 34 223 127 274 278-124-39-221-135-274-278Z" fill="#7d4e35"/>
    <path d="M578 250c101 30 177 95 227 191-104-12-181-77-227-191Z" fill="#9d6648"/>
  </g>
  <text x="100" y="150" fill="#204d36" font-size="58" font-family="'Noto Serif JP', serif" font-weight="700">ムクナ豆（インド原産）</text>
  <text x="100" y="220" fill="#5c6e5c" font-size="28" font-family="'Noto Sans JP', sans-serif">系統比較のために研究・栽培してきた品種</text>
</svg>